<?xml version="1.0" standalone="no"?>
<!DOCTYPE svg PUBLIC "-//W3C//DTD SVG 20010904//EN"
 "http://www.w3.org/TR/2001/REC-SVG-20010904/DTD/svg10.dtd">
<svg version="1.0" xmlns="http://www.w3.org/2000/svg"
 width="520.000000pt" height="480.000000pt" viewBox="0 0 520.000000 480.000000"
 preserveAspectRatio="xMidYMid meet">

<g transform="translate(0.000000,480.000000) scale(0.100000,-0.100000)"
fill="#000000" stroke="none">
<path d="M2680 4765 c22 -23 22 -25 6 -50 -9 -14 -22 -25 -28 -25 -6 0 -8 -3
-5 -6 4 -4 18 1 32 10 30 20 33 56 7 79 -29 26 -38 20 -12 -8z"/>
<path d="M2620 4759 c-16 -30 -8 -31 13 -3 10 13 13 24 8 24 -6 0 -15 -9 -21
-21z"/>
<path d="M22 4564 c-30 -21 -30 -69 1 -85 21 -12 21 -11 5 8 -23 26 -23 46 2
68 39 36 69 -27 33 -68 -17 -19 -17 -20 4 -8 35 18 41 60 13 83 -27 22 -30 22
-58 2z"/>
<path d="M2092 4569 c-13 -5 -29 -25 -38 -44 -13 -31 -18 -35 -53 -35 -39 0
-71 -23 -71 -50 0 -8 11 -26 25 -40 l25 -27 -20 -18 c-11 -10 -20 -29 -20 -42
0 -33 55 -87 78 -78 40 17 51 16 61 -4 13 -24 59 -29 89 -10 14 9 25 8 49 -4
40 -21 104 -30 123 -18 12 8 11 17 -10 61 -13 28 -30 56 -37 62 -9 7 -11 22
-7 44 12 64 -17 104 -75 104 -19 0 -31 19 -31 49 0 35 -51 64 -88 50z m46 -25
c17 -12 22 -25 22 -60 l0 -45 34 6 c50 10 76 -8 76 -51 0 -40 -24 -55 -77 -47
-36 6 -39 0 -23 -41 11 -31 4 -53 -20 -66 -27 -15 -48 -2 -62 36 -14 39 -23
42 -38 14 -19 -35 -80 -20 -80 20 0 9 11 27 25 40 27 26 33 50 12 50 -21 0
-49 36 -45 57 4 19 31 22 81 8 26 -7 27 -6 27 33 0 29 5 44 18 51 23 14 24 14
50 -5z m159 -263 c13 -19 21 -36 18 -39 -6 -6 -94 60 -95 71 0 5 12 7 27 5 18
-2 35 -15 50 -37z m3 -68 c0 -3 -14 -3 -32 1 -38 8 -68 33 -68 58 0 15 8 12
50 -18 28 -20 50 -38 50 -41z"/>
<path d="M2073 4426 c-24 -21 -26 -27 -18 -52 14 -39 65 -46 89 -12 21 30 20
44 -4 68 -26 26 -33 25 -67 -4z m54 -22 c7 -19 -20 -49 -36 -40 -12 8 -15 39
-4 49 12 12 33 7 40 -9z"/>
<path d="M3852 4507 c-41 -44 -24 -124 38 -175 29 -24 140 11 162 51 14 27 13
74 -3 93 -13 16 -75 19 -84 4 -4 -6 -18 2 -35 20 -34 36 -49 37 -78 7z m68
-45 c17 -35 31 -40 50 -17 14 17 56 20 65 4 14 -22 -17 -67 -56 -83 -54 -22
-63 -20 -93 15 -28 33 -35 86 -14 107 18 18 31 10 48 -26z"/>
<path d="M3502 4428 c-27 -13 -38 -51 -26 -87 14 -39 64 -41 93 -5 27 34 27
49 -4 79 -27 28 -30 28 -63 13z m56 -50 c4 -36 -32 -58 -56 -34 -13 12 -13 20
-4 41 17 36 56 31 60 -7z"/>
<path d="M4906 4383 c-16 -8 -41 -26 -55 -39 -19 -18 -33 -23 -52 -19 -58 13
-120 -36 -105 -83 5 -13 -4 -22 -37 -37 -76 -36 -74 -119 4 -139 32 -8 35 -12
35 -43 0 -65 57 -83 104 -33 24 26 29 28 40 15 18 -22 54 -18 84 10 29 27 32
42 15 79 -9 20 -9 28 4 40 25 25 30 55 14 80 -14 21 -14 28 0 67 18 48 11 119
-10 119 -7 -1 -25 -8 -41 -17z m-12 -63 c-29 -53 -38 -60 -48 -35 -6 15 48 85
66 85 5 0 -3 -22 -18 -50z m41 -39 c-8 -17 -22 -31 -30 -31 -20 0 -19 6 12 59
23 39 28 43 31 24 2 -12 -4 -35 -13 -52z m-125 14 c7 -9 14 -32 15 -53 1 -20
3 -38 4 -39 0 -1 17 5 37 13 32 14 38 13 60 -1 38 -25 31 -51 -24 -79 -31 -16
-36 -36 -8 -36 26 0 40 -28 28 -55 -14 -31 -52 -33 -77 -5 -25 28 -39 25 -56
-12 -10 -25 -20 -33 -39 -33 -24 0 -25 3 -23 52 l2 52 -34 -6 c-41 -7 -65 9
-65 43 0 30 35 54 78 54 29 0 33 3 27 18 -19 43 -17 69 6 86 29 20 53 20 69 1z"/>
<path d="M4752 4178 c-17 -17 -15 -54 4 -72 24 -24 61 -20 80 9 15 23 15 27 0
50 -18 27 -63 34 -84 13z m56 -17 c15 -9 13 -42 -3 -48 -6 -2 -19 3 -30 11
-16 12 -17 16 -6 30 15 18 21 19 39 7z"/>
<path d="M1285 3895 c-93 -27 -213 -94 -280 -156 -75 -70 -106 -129 -130 -244
-21 -101 -35 -130 -99 -202 -29 -32 -60 -69 -69 -83 -49 -71 12 -150 116 -150
l45 0 -5 -41 c-5 -34 -2 -44 22 -69 15 -16 41 -32 56 -35 28 -6 69 -47 69 -68
0 -5 -15 -24 -34 -42 -48 -45 -35 -59 56 -63 l73 -4 19 -38 c10 -21 32 -51 47
-66 16 -15 29 -31 29 -36 0 -4 -17 -34 -38 -66 -63 -98 -111 -204 -139 -308
-24 -90 -27 -118 -30 -314 l-3 -215 40 -150 c21 -82 43 -163 48 -180 17 -53
134 -340 144 -352 14 -17 80 -16 146 1 48 13 52 13 52 -3 0 -42 -21 -49 -255
-92 -126 -23 -263 -43 -303 -44 -88 -3 -115 -22 -137 -100 -18 -60 -22 -182
-7 -197 7 -7 33 11 86 61 41 39 76 71 78 71 10 0 379 51 405 56 44 8 49 -9 24
-77 -11 -30 -40 -126 -64 -214 -24 -88 -54 -179 -65 -202 -31 -60 -28 -93 10
-129 62 -57 197 -144 224 -144 11 0 14 6 9 23 -8 27 -69 152 -92 187 -15 25
-13 35 82 295 53 149 102 275 108 281 7 6 33 18 58 28 63 23 78 43 109 139 26
80 27 81 81 109 29 15 69 43 88 62 l34 35 -18 47 c-20 53 -78 140 -163 247
-55 68 -109 142 -195 264 l-37 53 1 122 c1 171 2 173 72 110 67 -61 97 -81
127 -87 13 -3 35 -15 49 -28 68 -63 292 -235 376 -290 22 -15 58 -48 79 -73
64 -77 176 -109 287 -84 30 7 91 18 137 25 61 10 91 20 115 39 18 14 73 54
122 88 107 73 223 162 325 251 41 36 76 65 76 64 1 -1 -18 -74 -42 -162 -121
-432 -177 -633 -187 -667 -13 -44 -4 -57 62 -96 35 -20 58 -26 105 -27 34 0
68 4 77 8 12 6 20 -2 33 -36 21 -56 43 -75 108 -97 l53 -17 38 -99 c162 -429
164 -437 92 -576 -46 -89 -54 -118 -34 -118 22 0 167 81 202 114 54 49 55 68
9 224 -61 205 -116 422 -109 428 3 4 66 -3 139 -15 73 -11 177 -25 231 -31 54
-6 107 -16 118 -23 11 -6 36 -37 56 -67 41 -63 73 -100 85 -100 14 0 9 134 -7
188 -27 91 -42 101 -206 138 -122 28 -343 72 -455 90 -42 6 -64 52 -44 90 17
30 21 30 76 -2 52 -30 120 -35 157 -11 14 9 36 35 49 59 15 26 30 41 39 39 8
-2 44 -6 82 -9 60 -4 71 -2 100 21 18 14 41 43 51 65 21 47 29 31 -82 167 -57
69 -61 79 -48 94 8 9 19 28 25 42 8 22 18 28 58 34 98 14 143 56 143 133 0 69
10 89 50 101 22 6 49 24 60 39 20 24 22 37 18 120 l-3 94 40 13 c69 24 90 67
60 125 -11 21 -27 33 -58 41 -91 26 -147 96 -172 217 -9 42 -19 182 -24 353
-10 287 -25 402 -66 520 -41 115 -165 273 -279 353 -255 181 -512 174 -724
-19 l-65 -60 -57 3 c-144 9 -246 -114 -331 -398 -31 -106 -64 -177 -104 -226
-39 -48 -55 -83 -55 -122 1 -41 25 -66 64 -66 29 0 35 -4 46 -34 32 -90 154
-162 273 -162 49 -1 67 -5 88 -23 24 -20 27 -31 33 -114 6 -80 30 -197 49
-243 5 -11 -18 -29 -88 -69 -52 -30 -95 -58 -95 -61 0 -4 -55 -38 -122 -75
l-122 -68 -46 16 c-25 8 -57 18 -72 21 -18 4 -28 14 -30 28 -7 51 -68 25 -88
-38 -7 -19 -16 -34 -22 -34 -27 0 -448 194 -448 207 0 7 -8 16 -17 20 -112 38
-263 147 -331 238 l-44 60 118 6 c142 8 226 32 313 90 93 62 148 138 174 239
13 50 17 55 50 63 54 13 112 68 127 122 7 25 16 45 21 45 4 0 21 12 38 26 39
33 45 91 10 96 -12 2 -31 16 -43 31 -19 25 -22 46 -26 190 -5 156 -6 164 -35
215 -57 104 -161 172 -262 172 -33 0 -53 7 -87 34 -50 38 -142 75 -261 107
-105 27 -317 35 -390 14z m715 -712 c6 -42 14 -83 17 -90 4 -9 -6 -13 -35 -13
-31 0 -45 -5 -56 -22 -30 -42 -18 -48 99 -52 22 0 41 -13 74 -48 l44 -48 -11
-65 c-36 -221 -235 -365 -502 -365 -258 0 -466 129 -514 317 -10 39 -19 51
-51 68 -49 26 -75 61 -82 113 -12 92 30 172 92 172 18 0 38 -7 46 -16 16 -20
87 -12 207 22 76 22 85 23 105 9 12 -8 35 -15 52 -15 17 0 60 -17 99 -40 77
-45 99 -42 79 10 -6 17 -10 30 -8 30 1 0 45 9 96 19 95 20 168 46 204 75 11 8
23 16 26 16 3 0 12 -35 19 -77z m1070 58 c0 -31 143 -142 238 -185 31 -14 42
-25 42 -41 0 -41 33 -126 61 -156 34 -37 49 -37 49 -1 0 21 7 32 25 40 16 8
25 20 25 34 -1 21 -2 21 -11 6 -18 -31 -45 -21 -62 23 l-16 40 32 -8 c96 -24
154 8 144 79 l-5 38 52 0 c67 0 162 17 204 37 68 32 123 -17 130 -115 5 -77
-22 -135 -76 -160 -42 -19 -52 -29 -52 -55 0 -38 -54 -130 -105 -181 -59 -59
-150 -107 -246 -132 -78 -20 -233 -23 -309 -5 -73 17 -189 73 -219 105 l-25
26 29 30 c33 34 17 40 -26 9 l-29 -20 -29 46 c-32 51 -51 121 -51 190 0 40 4
47 50 85 63 53 126 147 148 222 9 32 20 58 25 58 4 0 7 -4 7 -9z m-1774 -707
c33 -19 91 -45 131 -56 l72 -22 50 -80 c27 -45 83 -120 124 -167 l75 -87 -41
-39 c-23 -22 -57 -50 -75 -62 l-32 -23 -63 55 c-132 117 -225 246 -242 340 -8
41 -25 50 -25 14 0 -73 84 -227 158 -289 l30 -25 -6 -159 -7 -159 -50 -7 c-27
-3 -76 -7 -107 -7 -51 -1 -57 1 -60 21 -4 28 -28 36 -28 9 0 -20 -5 -21 -92
-21 l-91 0 6 168 c7 192 32 313 91 435 33 68 111 197 120 197 2 0 30 -16 62
-36z m2407 -56 c34 -72 53 -203 38 -266 -6 -26 -46 -116 -88 -201 l-78 -153
30 -25 c120 -100 186 -171 341 -363 l175 -219 -14 -28 c-38 -71 -102 -96 -177
-68 -66 24 -72 23 -84 -13 -15 -44 -59 -88 -96 -95 -38 -8 -72 5 -123 45 -38
31 -41 31 -51 13 -6 -11 -32 -42 -57 -69 -61 -65 -93 -67 -152 -8 l-41 42 -46
-50 c-41 -44 -51 -50 -86 -50 -29 0 -55 9 -88 31 -70 47 -71 54 -37 161 28 85
56 184 175 610 l41 147 92 63 c208 143 316 270 296 348 -8 31 -20 24 -15 -10
5 -33 -30 -101 -70 -135 -74 -64 -191 -156 -241 -190 l-58 -39 -34 18 c-18 10
-46 31 -61 47 -31 33 -40 15 87 172 47 59 108 144 135 190 48 82 50 84 102 96
29 7 72 21 95 31 23 10 47 19 54 19 6 1 23 -23 36 -51z m-393 -205 c-12 -16
-36 -44 -54 -63 -17 -19 -43 -50 -56 -67 -28 -39 -36 -41 -43 -12 -10 38 11
68 85 118 84 57 98 62 68 24z m-1554 -79 c38 -25 70 -49 72 -54 4 -11 -26 -33
-37 -26 -12 8 -114 126 -108 126 2 0 35 -21 73 -46z m1374 -50 c0 -14 4 -34
10 -44 17 -31 1 -50 -82 -91 -87 -44 -95 -43 -125 14 -12 25 -13 32 -1 43 18
18 170 103 186 103 6 1 12 -10 12 -25z m-1245 -25 c11 -17 0 -20 -21 -4 -17
13 -17 14 -2 15 9 0 20 -5 23 -11z m-93 -36 c21 -19 23 -33 5 -33 -22 0 -51
26 -43 38 10 16 16 15 38 -5z m77 -2 c8 -5 9 -11 3 -15 -13 -8 -42 3 -42 15 0
11 21 11 39 0z m289 -97 c162 -68 231 -93 242 -86 8 5 21 28 28 50 17 53 38
54 47 3 6 -34 3 -42 -26 -70 -28 -28 -31 -37 -26 -71 6 -49 -12 -54 -42 -11
-15 20 -34 31 -68 38 -26 6 -122 30 -213 53 -142 37 -170 48 -198 75 l-34 32
21 42 c12 22 26 41 32 41 5 0 112 -43 237 -96z m-388 42 c9 -12 10 -16 0 -16
-16 0 -61 36 -53 43 7 8 36 -7 53 -27z m75 4 c3 -5 1 -10 -4 -10 -6 0 -11 5
-11 10 0 6 2 10 4 10 3 0 8 -4 11 -10z m-111 -51 c-8 -14 -48 14 -53 36 -3 16
1 15 28 -4 17 -13 29 -27 25 -32z m1172 34 c7 -10 14 -23 14 -29 0 -6 -63 -44
-140 -83 -108 -56 -144 -79 -155 -102 -16 -30 -42 -41 -31 -13 9 24 -19 81
-51 100 -30 20 -43 34 -43 47 0 13 62 -3 82 -20 24 -21 56 -11 183 57 61 33
114 60 119 60 5 0 15 -8 22 -17z m-818 -246 c108 -88 158 -124 170 -120 28 10
86 49 101 67 7 9 20 16 28 16 14 0 13 -11 -4 -56 -2 -6 9 -20 25 -30 31 -21
97 -92 91 -99 -3 -2 -23 5 -47 15 -69 31 -56 6 15 -29 68 -33 72 -46 18 -56
-21 -4 -45 1 -77 18 -50 26 -62 22 -28 -8 31 -28 24 -33 -29 -24 -71 11 -123
42 -163 97 -7 10 -60 51 -118 92 -108 75 -288 219 -328 263 l-23 24 43 36 42
35 66 -57 c36 -32 134 -115 218 -184z m1115 210 l38 -33 -63 -55 c-103 -91
-264 -216 -362 -281 -50 -34 -93 -65 -94 -70 -8 -18 -83 -48 -122 -48 -30 0
-40 4 -40 16 0 9 -14 34 -31 55 -28 36 -29 40 -12 46 10 4 33 7 50 7 37 0 38
1 18 36 -29 51 -16 53 55 5 29 -19 58 -35 66 -35 18 0 241 188 359 302 50 48
92 87 95 87 3 0 22 -14 43 -32z m-1528 -7 c10 -11 16 -23 12 -26 -7 -7 -57 25
-57 37 0 16 26 9 45 -11z m1394 -6 c-61 -67 -326 -298 -356 -311 -7 -2 -38 11
-70 31 -32 20 -69 36 -82 36 -22 0 -23 -3 -17 -38 6 -38 5 -39 -31 -50 -32
-10 -41 -9 -69 9 -30 18 -32 22 -27 62 3 23 7 44 9 46 2 2 21 -2 43 -9 53 -17
123 -6 161 26 16 14 30 31 30 38 0 18 280 149 294 137 9 -7 30 -1 72 19 74 36
72 35 43 4z m-889 -119 c160 -40 201 -58 200 -84 -1 -8 -85 -69 -114 -82 -22
-10 -33 -3 -142 91 -149 128 -140 120 -128 120 5 0 88 -20 184 -45z m345 24
c10 -15 3 -19 -39 -26 -40 -6 -48 8 -13 25 29 14 44 14 52 1z m42 -45 c5 -14
-45 -35 -88 -37 -49 -3 -44 16 9 34 53 18 74 19 79 3z m-7 -49 c-7 -8 -22 -15
-34 -15 -20 1 -20 2 4 15 33 19 46 19 30 0z m-1348 -48 c67 -1 99 -6 103 -14
2 -8 -4 -13 -15 -13 -11 0 -20 -5 -20 -12 0 -9 -3 -9 -12 0 -8 8 -47 12 -110
12 -54 0 -98 2 -98 4 0 2 -3 12 -6 20 -5 14 0 15 27 11 19 -3 78 -6 131 -8z
m262 -22 c11 -19 23 -35 28 -35 5 0 6 -12 3 -27 -4 -23 -4 -25 4 -8 10 20 10
19 17 -2 3 -13 10 -23 15 -23 5 0 9 -7 9 -15 0 -8 5 -15 11 -15 6 0 8 -7 5
-17 -4 -10 -4 -14 0 -11 11 11 43 -37 40 -58 -2 -10 -1 -13 1 -6 6 18 16 14
36 -13 10 -14 15 -30 11 -37 -4 -6 -3 -8 4 -4 6 3 28 -15 49 -41 21 -27 42
-51 48 -55 5 -4 2 -15 -8 -26 -9 -10 -14 -22 -10 -25 3 -4 1 -7 -5 -7 -7 0
-12 5 -12 10 0 16 -17 12 -24 -6 -3 -8 -1 -25 6 -37 l11 -21 8 21 c4 11 12 24
18 28 6 3 9 10 6 15 -3 4 2 13 10 20 12 10 17 7 27 -16 7 -16 18 -32 24 -36 7
-5 11 -28 9 -60 -2 -37 0 -47 7 -35 5 9 6 22 3 27 -3 6 -1 10 4 10 18 0 12
-45 -8 -62 -38 -32 -60 -40 -74 -26 -17 18 -57 87 -57 99 0 5 -11 22 -25 37
-14 15 -25 32 -25 38 0 6 -7 17 -16 25 -10 8 -13 22 -10 38 3 14 3 20 0 14 -8
-18 -24 -16 -24 2 0 8 -5 15 -11 15 -6 0 -8 9 -4 23 4 14 3 17 -3 9 -7 -10
-12 -9 -24 5 -31 37 -61 86 -47 78 11 -7 10 -4 -2 15 -9 14 -21 25 -28 25 -16
0 -63 73 -51 80 5 3 12 32 16 65 4 33 9 60 13 60 4 0 15 -16 25 -35z m-86 -10
c-1 -19 -3 -35 -4 -35 -3 0 -34 61 -34 67 0 1 9 3 20 3 17 0 20 -6 18 -35z
m-53 -36 c5 -21 3 -34 -5 -39 -8 -5 -10 -18 -6 -35 8 -30 -1 -68 -14 -60 -5 3
-11 1 -14 -4 -4 -5 -2 -12 2 -15 13 -7 54 34 49 48 -3 6 -8 18 -11 26 -4 9 -1
24 7 33 12 17 15 15 35 -25 33 -62 41 -75 103 -158 71 -96 150 -218 146 -228
-1 -4 8 -17 21 -30 13 -13 21 -30 18 -37 -3 -8 0 -17 6 -21 7 -5 8 -2 4 7 -4
8 1 3 13 -11 23 -29 19 -32 -54 -49 -70 -16 -171 -10 -192 11 -14 15 -14 19
-2 34 13 16 12 16 -9 5 -20 -10 -23 -9 -31 13 -6 13 -15 27 -21 31 -6 4 -8 16
-5 28 5 17 4 19 -4 7 -6 -8 -11 -12 -12 -7 -1 4 -2 10 -3 15 -1 4 -14 21 -30
37 -28 29 -136 189 -136 201 0 3 7 3 16 0 9 -3 12 -2 8 5 -3 6 -15 9 -25 6
-11 -3 -19 -1 -19 4 0 12 22 11 53 0 21 -8 25 -7 22 7 -1 9 6 27 17 39 11 11
22 39 25 62 3 23 10 41 15 41 5 0 2 7 -6 16 -16 16 -22 55 -9 67 17 18 42 5
48 -24z m-102 -19 c6 -25 -1 -26 -20 -2 -14 16 -14 16 -9 -1 3 -10 6 -25 6
-33 0 -8 5 -14 11 -14 5 0 7 5 4 10 -3 6 -2 10 3 10 6 0 12 -7 16 -15 12 -31
-30 -95 -54 -80 -5 3 -10 1 -10 -4 0 -29 -33 -5 -56 40 -20 41 -22 51 -9 46 9
-4 14 -3 10 3 -3 6 -13 10 -21 10 -31 0 -12 19 24 23 l37 4 -45 3 -45 3 35 7
c19 4 54 8 76 9 34 1 43 -3 47 -19z m-148 -157 c-2 -8 -1 -11 5 -8 5 3 14 -4
20 -16 7 -13 8 -19 2 -15 -6 3 -14 1 -18 -5 -4 -8 -3 -9 4 -5 23 14 113 -119
106 -155 -3 -19 -3 -20 4 -6 6 15 17 5 65 -61 31 -44 57 -85 57 -91 0 -7 5 -9
10 -6 6 3 10 1 10 -6 0 -6 10 -20 22 -31 35 -30 14 -39 -97 -42 l-39 -1 -33
79 c-18 43 -30 83 -27 88 3 4 1 8 -5 8 -6 0 -16 19 -22 43 -7 23 -16 47 -20
52 -11 16 -67 196 -74 240 l-6 40 21 -44 c11 -25 18 -51 15 -58z m635 -213 c0
-5 -4 -10 -10 -10 -5 0 -10 5 -10 10 0 6 5 10 10 10 6 0 10 -4 10 -10z m-40
-258 c0 -36 -31 -122 -53 -147 -21 -25 -87 -52 -87 -36 0 14 60 175 68 182 7
7 36 16 60 18 6 0 12 -7 12 -17z m1687 -24 c25 -28 63 -110 63 -139 0 -10 -57
9 -87 29 -40 25 -56 142 -20 142 7 0 27 -15 44 -32z m-1800 10 c-2 -7 -66
-185 -141 -396 l-137 -384 29 -32 c29 -33 79 -142 69 -152 -6 -6 -95 50 -164
105 -59 46 -65 67 -33 118 11 18 51 139 90 269 39 129 91 291 116 360 l46 124
65 0 c48 0 64 -3 60 -12z m2026 -135 c49 -150 60 -187 107 -368 17 -66 42
-153 55 -193 14 -40 25 -82 25 -94 0 -11 -17 -37 -38 -57 -36 -35 -148 -101
-170 -101 -6 0 10 43 35 96 58 120 59 152 8 284 -32 84 -75 202 -161 443 -30
85 -30 87 4 87 15 0 38 9 52 20 14 11 28 20 32 20 3 0 27 -62 51 -137z m247
36 c107 -22 233 -47 279 -54 46 -8 92 -22 101 -30 21 -19 47 -107 56 -190 l6
-60 -20 20 c-12 11 -43 51 -69 90 l-48 69 -175 22 c-196 24 -297 41 -321 55
-9 4 -22 28 -28 51 -7 24 -15 49 -17 56 -9 19 25 15 236 -29z m-2467 24 c3 -5
-5 -35 -17 -67 l-21 -60 -145 -23 c-80 -12 -185 -27 -235 -33 l-90 -11 -65
-67 -65 -67 -3 60 c-7 138 25 195 113 195 24 0 81 9 127 19 73 18 246 44 348
54 19 2 38 5 42 5 4 1 9 -1 11 -5z"/>
<path d="M1070 3066 c0 -8 5 -27 10 -41 7 -18 7 -33 -1 -47 -15 -27 -8 -30 21
-8 l24 18 -19 42 c-20 44 -35 60 -35 36z"/>
<path d="M1572 3007 c-25 -26 -62 -115 -62 -147 0 -26 25 -36 46 -19 25 21 65
107 67 146 3 46 -19 54 -51 20z"/>
<path d="M1799 2989 c-54 -77 -89 -209 -54 -209 10 0 15 10 15 33 0 48 24 122
54 168 31 46 17 53 -15 8z"/>
<path d="M1895 2917 c-32 -50 -48 -158 -24 -172 28 -18 84 99 77 162 -4 36
-32 42 -53 10z"/>
<path d="M1312 2899 c2 -6 7 -10 11 -10 4 1 16 1 27 1 11 0 20 5 20 10 0 6
-14 10 -31 10 -17 0 -29 -5 -27 -11z"/>
<path d="M1346 2834 c-28 -19 -35 -29 -27 -37 8 -8 21 -1 49 26 43 43 33 48
-22 11z"/>
<path d="M1417 2812 c-18 -20 -22 -42 -9 -42 10 0 35 50 29 56 -2 2 -11 -4
-20 -14z"/>
<path d="M1515 2700 c-9 -15 23 -50 62 -66 43 -19 163 -18 188 0 17 12 12 13
-46 9 -77 -6 -132 8 -170 44 -18 17 -29 21 -34 13z"/>
<path d="M3859 3043 c-21 -49 -20 -53 24 -71 29 -12 36 -2 12 18 -17 14 -20
53 -5 81 8 13 7 19 0 19 -6 0 -20 -21 -31 -47z"/>
<path d="M3161 2965 c0 -5 6 -21 14 -35 20 -34 19 -90 -2 -113 -17 -18 -17
-19 2 -33 22 -16 55 -19 55 -4 0 6 -7 10 -15 10 -17 0 -19 9 -6 43 12 31 -2
86 -29 119 -11 13 -19 19 -19 13z"/>
<path d="M2990 2906 c0 -18 7 -53 15 -76 19 -54 20 -50 -12 -50 -27 -1 -27 -1
-8 -16 11 -8 29 -13 39 -10 11 3 26 0 33 -6 7 -5 20 -7 29 -4 31 12 0 120 -49
174 -30 32 -47 28 -47 -12z"/>
<path d="M3627 2913 c-26 -7 -10 -23 24 -23 20 0 29 4 27 13 -5 13 -24 17 -51
10z"/>
<path d="M3580 2865 c0 -10 65 -64 78 -65 24 0 11 25 -24 48 -34 21 -54 28
-54 17z"/>
<path d="M3550 2828 c0 -27 11 -48 26 -48 19 0 17 10 -6 40 -15 19 -20 21 -20
8z"/>
<path d="M3293 2768 c-6 -7 -13 -21 -16 -31 -5 -14 -14 -17 -40 -12 -47 9 -66
-14 -43 -50 19 -29 68 -62 105 -72 32 -8 58 23 67 82 5 34 2 51 -10 70 -18 27
-48 33 -63 13z m51 -43 c9 -34 -18 -95 -41 -95 -22 0 -93 46 -93 60 0 13 36
13 60 0 15 -8 19 -5 24 25 8 43 40 49 50 10z"/>
<path d="M3007 2642 c-19 -20 -23 -42 -7 -42 12 0 32 38 28 51 -2 6 -11 2 -21
-9z"/>
<path d="M1260 2286 c-13 -36 -13 -46 4 -46 17 0 31 49 17 63 -7 7 -14 1 -21
-17z"/>
<path d="M1234 2185 c-8 -20 3 -48 16 -40 13 8 13 55 0 55 -6 0 -13 -7 -16
-15z"/>
<path d="M1227 2094 c-10 -11 -8 -64 2 -64 13 0 24 51 13 62 -4 4 -11 5 -15 2z"/>
<path d="M1210 1953 c0 -41 14 -36 25 10 6 21 4 27 -9 27 -12 0 -16 -10 -16
-37z"/>
<path d="M1204 1887 c-7 -20 -2 -47 11 -50 14 -3 19 43 6 56 -7 7 -12 6 -17
-6z"/>
<path d="M1108 1713 c12 -2 32 -2 45 0 12 2 2 4 -23 4 -25 0 -35 -2 -22 -4z"/>
<path d="M1451 1706 c-1 -11 6 -28 16 -38 13 -15 14 -23 5 -43 -6 -13 -7 -27
-3 -29 13 -8 22 51 11 76 -5 13 -9 19 -10 13 -1 -5 -6 1 -10 15 -6 20 -8 21
-9 6z"/>
<path d="M1447 1654 c-4 -4 -7 -14 -7 -23 0 -11 3 -12 11 -4 6 6 10 16 7 23
-2 6 -7 8 -11 4z"/>
<path d="M1442 1586 c6 -14 15 -26 20 -26 10 0 -7 36 -22 45 -6 4 -5 -5 2 -19z"/>
<path d="M1510 1601 c0 -6 5 -13 10 -16 6 -4 8 -11 5 -16 -4 -5 -1 -9 5 -9 7
0 9 7 6 16 -3 9 -6 20 -6 25 0 5 -4 9 -10 9 -5 0 -10 -4 -10 -9z"/>
<path d="M1480 1564 c0 -8 5 -12 10 -9 6 3 10 10 10 16 0 5 -4 9 -10 9 -5 0
-10 -7 -10 -16z"/>
<path d="M1535 1520 c-3 -5 -1 -10 4 -10 6 0 11 5 11 10 0 6 -2 10 -4 10 -3 0
-8 -4 -11 -10z"/>
<path d="M1520 1481 c0 -6 5 -13 10 -16 6 -3 10 1 10 9 0 9 -4 16 -10 16 -5 0
-10 -4 -10 -9z"/>
<path d="M1551 1456 c-18 -22 2 -26 23 -5 16 16 17 19 4 19 -9 0 -21 -6 -27
-14z"/>
<path d="M1640 1394 c1 -16 28 -45 34 -36 3 5 -3 17 -14 27 -11 10 -20 14 -20
9z"/>
<path d="M1690 1370 c0 -5 5 -10 11 -10 5 0 7 5 4 10 -3 6 -8 10 -11 10 -2 0
-4 -4 -4 -10z"/>
<path d="M1660 1271 c0 -5 5 -13 10 -16 6 -3 10 -2 10 4 0 5 -4 13 -10 16 -5
3 -10 2 -10 -4z"/>
<path d="M1764 1259 c3 -8 9 -22 12 -31 4 -10 10 -18 15 -18 16 0 10 19 -12
41 -12 12 -19 15 -15 8z"/>
<path d="M1746 1142 c-3 -6 1 -15 8 -21 8 -7 17 -8 20 -3 3 6 -1 15 -8 21 -8
7 -17 8 -20 3z"/>
<path d="M1347 1603 c-4 -3 -1 -13 5 -21 7 -8 17 -23 23 -35 5 -11 17 -23 25
-25 12 -4 12 -1 -2 14 -9 11 -23 31 -31 46 -8 15 -17 25 -20 21z"/>
<path d="M1280 1480 c0 -5 5 -10 11 -10 5 0 7 5 4 10 -3 6 -8 10 -11 10 -2 0
-4 -4 -4 -10z"/>
<path d="M1410 1484 c0 -15 27 -50 34 -43 4 3 -2 17 -13 30 -11 13 -20 19 -21
13z"/>
<path d="M1435 1421 c-3 -5 -1 -12 5 -16 5 -3 10 1 10 9 0 18 -6 21 -15 7z"/>
<path d="M1230 1393 c0 -4 5 -15 10 -23 8 -13 10 -13 10 2 0 9 -4 20 -10 23
-5 3 -10 3 -10 -2z"/>
<path d="M1466 1384 c-8 -21 -8 -24 4 -24 6 0 10 8 10 18 0 9 18 -10 40 -43
22 -33 40 -57 40 -52 0 12 -72 117 -80 117 -4 0 -11 -7 -14 -16z"/>
<path d="M1260 1355 c0 -9 24 -48 43 -69 25 -29 21 -12 -8 34 -23 36 -35 48
-35 35z"/>
<path d="M1315 1339 c-4 -12 -3 -25 2 -29 4 -5 8 4 9 21 1 34 -2 37 -11 8z"/>
<path d="M1340 1260 c-13 -8 -12 -10 3 -10 9 0 17 5 17 10 0 12 -1 12 -20 0z"/>
<path d="M1580 1242 c0 -7 7 -20 15 -28 19 -20 20 -4 0 22 -9 12 -14 14 -15 6z"/>
<path d="M1628 1143 c7 -3 16 -2 19 1 4 3 -2 6 -13 5 -11 0 -14 -3 -6 -6z"/>
<path d="M1571 1124 c0 -11 3 -14 6 -6 3 7 2 16 -1 19 -3 4 -6 -2 -5 -13z"/>
<path d="M1627 1119 c7 -7 15 -10 18 -7 3 3 -2 9 -12 12 -14 6 -15 5 -6 -5z"/>
<path d="M1466 1104 c-9 -8 -16 -20 -16 -26 0 -6 1 -9 3 -7 1 2 11 14 21 27
22 25 16 30 -8 6z"/>
<path d="M1618 1093 c7 -3 16 -2 19 1 4 3 -2 6 -13 5 -11 0 -14 -3 -6 -6z"/>
<path d="M1660 1089 c0 -5 5 -7 10 -4 6 3 10 8 10 11 0 2 -4 4 -10 4 -5 0 -10
-5 -10 -11z"/>
<path d="M1480 1079 c0 -5 9 -9 20 -9 11 0 20 2 20 4 0 2 -9 6 -20 9 -11 3
-20 1 -20 -4z"/>
<path d="M1578 1073 c6 -2 18 -2 25 0 6 3 1 5 -13 5 -14 0 -19 -2 -12 -5z"/>
<path d="M1148 1613 c7 -3 16 -2 19 1 4 3 -2 6 -13 5 -11 0 -14 -3 -6 -6z"/>
<path d="M1180 1589 c0 -5 5 -7 10 -4 6 3 10 8 10 11 0 2 -4 4 -10 4 -5 0 -10
-5 -10 -11z"/>
<path d="M1161 1544 c0 -11 3 -14 6 -6 3 7 2 16 -1 19 -3 4 -6 -2 -5 -13z"/>
<path d="M1180 1544 c0 -8 5 -12 10 -9 6 4 8 11 5 16 -9 14 -15 11 -15 -7z"/>
<path d="M1110 1415 c0 -5 5 -17 10 -25 5 -8 10 -10 10 -5 0 6 -5 17 -10 25
-5 8 -10 11 -10 5z"/>
<path d="M1157 1343 c-11 -11 -8 -20 7 -20 8 0 12 6 9 14 -6 15 -7 15 -16 6z"/>
<path d="M1220 1240 c0 -5 5 -10 11 -10 5 0 7 5 4 10 -3 6 -8 10 -11 10 -2 0
-4 -4 -4 -10z"/>
<path d="M1260 1197 c0 -4 5 -16 12 -27 7 -10 9 -23 5 -27 -5 -4 -12 -1 -17 7
-6 8 -10 11 -10 5 0 -19 15 -30 41 -32 l27 -1 -25 36 c-28 42 -33 48 -33 39z"/>
<path d="M1197 1169 c4 -13 8 -18 11 -10 2 7 -1 18 -6 23 -8 8 -9 4 -5 -13z"/>
<path d="M1224 1146 c-6 -21 -7 -34 -1 -33 5 1 12 -4 15 -12 3 -8 0 -11 -7 -7
-15 10 -14 -6 2 -28 12 -17 14 -14 13 22 0 22 -4 38 -8 36 -10 -7 -10 -1 2 30
5 14 6 26 2 26 -4 0 -12 -16 -18 -34z"/>
<path d="M5123 3713 c-7 -2 -13 -9 -13 -14 0 -5 8 -4 19 2 26 17 51 4 51 -24
0 -30 -24 -51 -50 -44 -11 3 -18 1 -14 -4 9 -14 51 -10 68 7 19 18 21 55 4 72
-12 12 -43 15 -65 5z"/>
<path d="M188 3663 c-19 -23 -31 -28 -68 -28 -40 0 -45 -3 -54 -28 -20 -57 43
-120 120 -121 41 -1 49 3 76 35 40 49 47 105 18 142 -12 15 -31 27 -45 27 -13
0 -33 -12 -47 -27z m72 -22 c16 -32 12 -56 -19 -99 -29 -39 -31 -40 -68 -32
-41 10 -83 50 -83 81 0 24 36 26 68 3 22 -15 23 -14 36 18 23 54 47 64 66 29z"/>
<path d="M4554 3290 c-33 -13 -48 -61 -34 -105 16 -48 57 -95 83 -95 79 0 147
49 147 105 0 46 -30 71 -72 58 -29 -8 -36 -6 -60 19 -28 30 -32 31 -64 18z
m57 -61 l20 -41 23 21 c41 38 75 20 62 -33 -6 -24 -66 -56 -105 -56 -40 0 -79
78 -62 123 15 39 37 33 62 -14z"/>
<path d="M396 2775 c-54 -54 -5 -139 60 -104 31 16 41 55 23 88 -17 31 -60 39
-83 16z m63 -29 c18 -22 -3 -56 -34 -56 -21 0 -25 5 -25 28 0 16 3 32 7 35 11
12 40 8 52 -7z"/>
<path d="M180 2618 c-11 -18 -20 -39 -20 -45 0 -8 -14 -13 -38 -13 -63 0 -82
-42 -41 -86 21 -22 21 -25 5 -48 -20 -32 -20 -55 0 -85 14 -20 23 -22 56 -18
31 4 44 1 60 -15 16 -16 29 -19 65 -15 32 3 58 -1 87 -14 22 -10 58 -19 79
-19 31 0 37 3 37 20 0 26 -33 92 -54 110 -11 8 -14 20 -10 34 21 65 -16 126
-77 126 -25 0 -29 4 -29 28 0 44 -26 72 -66 72 -28 0 -38 -6 -54 -32z m76 -2
c14 -11 19 -26 19 -61 l0 -46 32 6 c57 10 97 -30 73 -75 -9 -16 -21 -20 -61
-20 -45 0 -50 -2 -44 -17 18 -41 16 -69 -3 -87 -27 -24 -60 -13 -68 22 -12 57
-14 59 -38 30 -23 -30 -54 -36 -74 -16 -20 20 -13 45 21 73 30 25 31 27 13 38
-52 33 -61 45 -50 64 12 18 40 21 82 8 20 -7 22 -4 22 28 0 36 21 67 44 67 7
0 21 -6 32 -14z m148 -257 c50 -59 25 -60 -44 0 l-35 30 27 1 c17 0 35 -10 52
-31z m-29 -44 c42 -36 39 -42 -14 -24 -27 10 -51 34 -51 53 0 15 29 2 65 -29z"/>
<path d="M193 2505 c-27 -19 -34 -49 -16 -74 18 -26 54 -27 76 -3 23 26 21 58
-5 76 -27 20 -29 20 -55 1z m45 -41 c3 -23 -17 -37 -37 -24 -19 11 -4 52 17
48 10 -2 18 -13 20 -24z"/>
<path d="M2076 2538 c-40 -57 3 -124 61 -96 15 7 32 25 37 40 22 61 -61 109
-98 56z m58 -4 c20 -8 21 -48 1 -64 -34 -28 -69 18 -40 50 21 23 18 22 39 14z"/>
<path d="M4833 2158 c-6 -7 -13 -20 -17 -28 -4 -8 1 -5 10 8 32 43 82 15 63
-35 -8 -23 -44 -31 -65 -15 -5 4 -1 -1 9 -10 15 -14 23 -16 40 -6 26 13 37 27
37 50 0 37 -56 63 -77 36z"/>
<path d="M4883 1692 c-10 -10 -23 -27 -28 -37 -9 -15 -15 -16 -32 -6 -32 16
-50 14 -73 -11 -24 -26 -26 -55 -3 -80 15 -17 15 -20 -2 -52 -18 -33 -18 -35
0 -63 14 -21 18 -43 17 -83 -3 -61 10 -110 30 -110 6 0 33 23 59 50 28 30 55
50 69 50 24 0 61 17 72 34 4 6 8 30 8 53 0 36 4 44 34 62 51 32 60 67 26 101
-12 12 -33 20 -55 20 -31 0 -35 3 -41 35 -9 52 -50 70 -81 37z m58 -29 c6 -15
8 -35 6 -45 -7 -25 5 -30 42 -17 27 9 35 8 51 -6 11 -10 20 -24 20 -32 0 -23
-47 -63 -75 -63 -29 0 -31 -11 -9 -46 13 -20 15 -30 6 -49 -25 -54 -102 -35
-102 25 0 38 -7 41 -46 18 -29 -17 -40 -19 -60 -10 -35 17 -33 58 6 80 37 21
38 30 5 38 -36 9 -48 35 -29 62 18 26 42 28 70 7 24 -19 44 -19 44 -1 0 61 52
89 71 39z m-121 -259 c0 -17 -36 -104 -42 -104 -14 0 -8 65 8 88 14 21 34 30
34 16z m50 -30 c0 -24 -28 -71 -45 -78 -18 -6 -16 7 11 72 13 33 34 36 34 6z"/>
<path d="M4860 1572 c-50 -41 11 -114 65 -78 27 18 34 57 13 74 -27 21 -55 22
-78 4z m55 -37 c0 -30 -39 -27 -43 3 -3 20 0 23 20 20 15 -2 23 -10 23 -23z"/>
<path d="M286 1359 c-22 -26 -31 -30 -56 -24 -84 18 -78 -94 7 -126 58 -22
100 -4 132 58 17 34 13 81 -9 103 -28 28 -44 25 -74 -11z m62 -1 c23 -23 14
-73 -20 -112 -32 -35 -35 -36 -70 -26 -36 10 -78 50 -78 74 0 29 23 35 60 16
41 -21 50 -18 50 15 0 23 17 45 35 45 6 0 16 -5 23 -12z"/>
<path d="M2743 1380 c-27 -11 -39 -53 -27 -89 14 -39 64 -41 93 -5 27 34 27
49 -4 79 -26 27 -29 28 -62 15z m55 -52 c4 -36 -32 -58 -56 -34 -13 12 -13 20
-4 41 17 36 56 31 60 -7z"/>
<path d="M2282 1194 c-12 -8 -22 -22 -22 -30 0 -11 -9 -13 -40 -8 -50 8 -70
-7 -70 -52 0 -47 35 -83 95 -99 28 -7 55 -10 60 -8 6 2 25 23 43 47 38 51 42
100 11 140 -23 30 -45 33 -77 10z m64 -39 c19 -30 9 -64 -32 -108 -20 -22 -30
-26 -52 -20 -56 13 -97 57 -85 91 7 17 39 15 68 -4 23 -15 25 -15 31 2 22 71
42 82 70 39z"/>
<path d="M210 721 c-22 -43 -5 -81 37 -81 33 0 56 40 44 74 -13 33 -64 37 -81
7z m65 -25 c0 -32 -23 -53 -49 -43 -19 7 -21 48 -4 65 7 7 22 11 33 10 15 -2
20 -11 20 -32z"/>
<path d="M2555 704 c-9 -9 -18 -29 -21 -44 -5 -22 -10 -26 -30 -22 -75 14
-102 -30 -55 -89 l32 -39 -22 -29 c-20 -27 -20 -30 -5 -59 18 -34 39 -43 75
-30 19 7 29 4 47 -13 12 -11 33 -21 46 -20 13 1 34 2 48 2 14 1 45 -7 70 -16
48 -19 100 -15 100 8 0 7 -15 38 -33 68 -27 45 -32 63 -29 97 5 51 -14 77 -62
88 -36 8 -46 19 -46 55 0 14 -8 33 -18 42 -24 22 -76 22 -97 1z m84 -28 c7 -8
13 -34 14 -58 2 -33 6 -42 17 -39 46 12 58 11 73 -4 10 -9 17 -29 17 -45 0
-37 -28 -53 -75 -44 -39 7 -40 5 -23 -42 10 -29 9 -36 -7 -54 -33 -36 -66 -23
-79 33 -8 34 -19 34 -40 2 -19 -29 -33 -31 -58 -8 -26 24 -22 49 12 73 37 27
38 34 0 50 -30 13 -47 41 -34 61 4 7 24 9 55 5 l49 -7 0 30 c0 16 3 36 6 45 8
20 57 21 73 2z m122 -226 c19 -11 56 -70 43 -70 -11 0 -93 64 -94 73 0 10 28
9 51 -3z m-15 -62 c24 -17 44 -33 44 -36 0 -10 -65 9 -82 25 -17 15 -25 43
-12 43 3 0 26 -14 50 -32z"/>
<path d="M2554 555 c-24 -37 -6 -75 36 -75 40 0 68 40 52 75 -16 35 -65 35
-88 0z m61 -25 c0 -16 -6 -26 -18 -28 -19 -4 -32 20 -23 44 9 25 41 13 41 -16z"/>
<path d="M4572 593 c-7 -3 -19 -18 -28 -35 -20 -39 -5 -86 41 -127 29 -25 39
-29 64 -21 61 17 101 53 101 91 0 36 -23 53 -61 45 -26 -5 -36 -1 -59 24 -28
30 -34 33 -58 23z m42 -35 c9 -12 16 -30 16 -40 0 -22 2 -22 41 1 36 22 59 18
59 -11 0 -35 -19 -56 -65 -74 -44 -16 -46 -16 -66 2 -44 40 -62 107 -37 132
18 18 35 15 52 -10z"/>
</g>
</svg>
